<?xml version="1.0" encoding="UTF-8" standalone="no"?>
<!DOCTYPE svg PUBLIC "-//W3C//DTD SVG 1.1//EN"
 "http://www.w3.org/Graphics/SVG/1.1/DTD/svg11.dtd">
<!-- Generated by graphviz version 2.36.0 (20140111.2315)
 -->
<!-- Title: %3 Pages: 1 -->
<svg width="532pt" height="332pt"
 viewBox="0.00 0.00 532.00 332.00" xmlns="http://www.w3.org/2000/svg" xmlns:xlink="http://www.w3.org/1999/xlink">
<g id="graph0" class="graph" transform="scale(1 1) rotate(0) translate(4 328)">
<title>%3</title>
<polygon fill="white" stroke="none" points="-4,4 -4,-328 528,-328 528,4 -4,4"/>
<!-- [root] aws_eip.jumphost_ip -->
<g id="node1" class="node"><title>[root] aws_eip.jumphost_ip</title>
<polygon fill="none" stroke="black" points="237.537,-324 102.463,-324 102.463,-288 237.537,-288 237.537,-324"/>
<text text-anchor="middle" x="170" y="-301.8" font-family="Times,serif" font-size="14.00">aws_eip.jumphost_ip</text>
</g>
<!-- [root] aws_instance.jumphost -->
<g id="node2" class="node"><title>[root] aws_instance.jumphost</title>
<polygon fill="none" stroke="black" points="243.194,-252 96.8058,-252 96.8058,-216 243.194,-216 243.194,-252"/>
<text text-anchor="middle" x="170" y="-229.8" font-family="Times,serif" font-size="14.00">aws_instance.jumphost</text>
</g>
<!-- [root] aws_eip.jumphost_ip&#45;&gt;[root] aws_instance.jumphost -->
<g id="edge1" class="edge"><title>[root] aws_eip.jumphost_ip&#45;&gt;[root] aws_instance.jumphost</title>
<path fill="none" stroke="black" d="M170,-287.697C170,-279.983 170,-270.712 170,-262.112"/>
<polygon fill="black" stroke="black" points="173.5,-262.104 170,-252.104 166.5,-262.104 173.5,-262.104"/>
</g>
<!-- [root] aws_security_group.bastion -->
<g id="node5" class="node"><title>[root] aws_security_group.bastion</title>
<polygon fill="none" stroke="black" points="172.021,-180 -0.0205985,-180 -0.0205985,-144 172.021,-144 172.021,-180"/>
<text text-anchor="middle" x="86" y="-157.8" font-family="Times,serif" font-size="14.00">aws_security_group.bastion</text>
</g>
<!-- [root] aws_instance.jumphost&#45;&gt;[root] aws_security_group.bastion -->
<g id="edge2" class="edge"><title>[root] aws_instance.jumphost&#45;&gt;[root] aws_security_group.bastion</title>
<path fill="none" stroke="black" d="M149.236,-215.697C138.759,-206.965 125.889,-196.24 114.5,-186.75"/>
<polygon fill="black" stroke="black" points="116.448,-183.817 106.525,-180.104 111.967,-189.195 116.448,-183.817"/>
</g>
<!-- [root] aws_subnet.bastion -->
<g id="node6" class="node"><title>[root] aws_subnet.bastion</title>
<polygon fill="none" stroke="black" points="315.449,-180 190.551,-180 190.551,-144 315.449,-144 315.449,-180"/>
<text text-anchor="middle" x="253" y="-157.8" font-family="Times,serif" font-size="14.00">aws_subnet.bastion</text>
</g>
<!-- [root] aws_instance.jumphost&#45;&gt;[root] aws_subnet.bastion -->
<g id="edge3" class="edge"><title>[root] aws_instance.jumphost&#45;&gt;[root] aws_subnet.bastion</title>
<path fill="none" stroke="black" d="M190.517,-215.697C200.869,-206.965 213.586,-196.24 224.839,-186.75"/>
<polygon fill="black" stroke="black" points="227.331,-189.227 232.719,-180.104 222.818,-183.876 227.331,-189.227"/>
</g>
<!-- [root] aws_internet_gateway.gateway -->
<g id="node3" class="node"><title>[root] aws_internet_gateway.gateway</title>
<polygon fill="none" stroke="black" points="524.304,-180 333.696,-180 333.696,-144 524.304,-144 524.304,-180"/>
<text text-anchor="middle" x="429" y="-157.8" font-family="Times,serif" font-size="14.00">aws_internet_gateway.gateway</text>
</g>
<!-- [root] aws_vpc.admin -->
<g id="node7" class="node"><title>[root] aws_vpc.admin</title>
<polygon fill="none" stroke="black" points="304.609,-108 201.391,-108 201.391,-72 304.609,-72 304.609,-108"/>
<text text-anchor="middle" x="253" y="-85.8" font-family="Times,serif" font-size="14.00">aws_vpc.admin</text>
</g>
<!-- [root] aws_internet_gateway.gateway&#45;&gt;[root] aws_vpc.admin -->
<g id="edge4" class="edge"><title>[root] aws_internet_gateway.gateway&#45;&gt;[root] aws_vpc.admin</title>
<path fill="none" stroke="black" d="M385.946,-143.876C361.671,-134.222 331.16,-122.087 305.492,-111.878"/>
<polygon fill="black" stroke="black" points="306.5,-108.512 295.915,-108.068 303.913,-115.016 306.5,-108.512"/>
</g>
<!-- [root] aws_route.gateway -->
<g id="node4" class="node"><title>[root] aws_route.gateway</title>
<polygon fill="none" stroke="black" points="490.261,-252 367.739,-252 367.739,-216 490.261,-216 490.261,-252"/>
<text text-anchor="middle" x="429" y="-229.8" font-family="Times,serif" font-size="14.00">aws_route.gateway</text>
</g>
<!-- [root] aws_route.gateway&#45;&gt;[root] aws_internet_gateway.gateway -->
<g id="edge5" class="edge"><title>[root] aws_route.gateway&#45;&gt;[root] aws_internet_gateway.gateway</title>
<path fill="none" stroke="black" d="M429,-215.697C429,-207.983 429,-198.712 429,-190.112"/>
<polygon fill="black" stroke="black" points="432.5,-190.104 429,-180.104 425.5,-190.104 432.5,-190.104"/>
</g>
<!-- [root] aws_security_group.bastion&#45;&gt;[root] aws_vpc.admin -->
<g id="edge6" class="edge"><title>[root] aws_security_group.bastion&#45;&gt;[root] aws_vpc.admin</title>
<path fill="none" stroke="black" d="M126.853,-143.876C149.784,-134.264 178.582,-122.193 202.87,-112.013"/>
<polygon fill="black" stroke="black" points="204.41,-115.162 212.28,-108.068 201.704,-108.706 204.41,-115.162"/>
</g>
<!-- [root] aws_subnet.bastion&#45;&gt;[root] aws_vpc.admin -->
<g id="edge7" class="edge"><title>[root] aws_subnet.bastion&#45;&gt;[root] aws_vpc.admin</title>
<path fill="none" stroke="black" d="M253,-143.697C253,-135.983 253,-126.712 253,-118.112"/>
<polygon fill="black" stroke="black" points="256.5,-118.104 253,-108.104 249.5,-118.104 256.5,-118.104"/>
</g>
<!-- [root] provider.aws -->
<g id="node8" class="node"><title>[root] provider.aws</title>
<polygon fill="none" stroke="black" points="253,-36 174.669,-18 253,-3.55271e-15 331.331,-18 253,-36"/>
<text text-anchor="middle" x="253" y="-13.8" font-family="Times,serif" font-size="14.00">provider.aws</text>
</g>
<!-- [root] aws_vpc.admin&#45;&gt;[root] provider.aws -->
<g id="edge8" class="edge"><title>[root] aws_vpc.admin&#45;&gt;[root] provider.aws</title>
<path fill="none" stroke="black" d="M253,-71.6966C253,-63.9827 253,-54.7125 253,-46.1124"/>
<polygon fill="black" stroke="black" points="256.5,-46.1043 253,-36.1043 249.5,-46.1044 256.5,-46.1043"/>
</g>
</g>
</svg>
