<?xml version="1.0" encoding="UTF-8" standalone="no"?>
<!DOCTYPE svg PUBLIC "-//W3C//DTD SVG 1.1//EN"
 "http://www.w3.org/Graphics/SVG/1.1/DTD/svg11.dtd">
<!-- Generated by graphviz version 2.36.0 (20140111.2315)
 -->
<!-- Title: %3 Pages: 1 -->
<svg width="661pt" height="260pt"
 viewBox="0.00 0.00 661.00 260.00" xmlns="http://www.w3.org/2000/svg" xmlns:xlink="http://www.w3.org/1999/xlink">
<g id="graph0" class="graph" transform="scale(1 1) rotate(0) translate(4 256)">
<title>%3</title>
<polygon fill="white" stroke="none" points="-4,4 -4,-256 657,-256 657,4 -4,4"/>
<!-- [root] aws_instance.webserver -->
<g id="node1" class="node"><title>[root] aws_instance.webserver</title>
<polygon fill="none" stroke="black" points="231.251,-252 80.7492,-252 80.7492,-216 231.251,-216 231.251,-252"/>
<text text-anchor="middle" x="156" y="-229.8" font-family="Times,serif" font-size="14.00">aws_instance.webserver</text>
</g>
<!-- [root] aws_security_group.admin -->
<g id="node4" class="node"><title>[root] aws_security_group.admin</title>
<polygon fill="none" stroke="black" points="166.434,-180 -0.433561,-180 -0.433561,-144 166.434,-144 166.434,-180"/>
<text text-anchor="middle" x="83" y="-157.8" font-family="Times,serif" font-size="14.00">aws_security_group.admin</text>
</g>
<!-- [root] aws_instance.webserver&#45;&gt;[root] aws_security_group.admin -->
<g id="edge1" class="edge"><title>[root] aws_instance.webserver&#45;&gt;[root] aws_security_group.admin</title>
<path fill="none" stroke="black" d="M137.955,-215.697C128.938,-207.05 117.882,-196.449 108.057,-187.027"/>
<polygon fill="black" stroke="black" points="110.478,-184.499 100.837,-180.104 105.633,-189.552 110.478,-184.499"/>
</g>
<!-- [root] aws_subnet.fe -->
<g id="node5" class="node"><title>[root] aws_subnet.fe</title>
<polygon fill="none" stroke="black" points="279.277,-180 184.723,-180 184.723,-144 279.277,-144 279.277,-180"/>
<text text-anchor="middle" x="232" y="-157.8" font-family="Times,serif" font-size="14.00">aws_subnet.fe</text>
</g>
<!-- [root] aws_instance.webserver&#45;&gt;[root] aws_subnet.fe -->
<g id="edge2" class="edge"><title>[root] aws_instance.webserver&#45;&gt;[root] aws_subnet.fe</title>
<path fill="none" stroke="black" d="M174.787,-215.697C184.174,-207.05 195.684,-196.449 205.913,-187.027"/>
<polygon fill="black" stroke="black" points="208.445,-189.454 213.43,-180.104 203.703,-184.305 208.445,-189.454"/>
</g>
<!-- [root] aws_route.admin_to_myapp -->
<g id="node2" class="node"><title>[root] aws_route.admin_to_myapp</title>
<polygon fill="none" stroke="black" points="460.268,-252 285.732,-252 285.732,-216 460.268,-216 460.268,-252"/>
<text text-anchor="middle" x="373" y="-229.8" font-family="Times,serif" font-size="14.00">aws_route.admin_to_myapp</text>
</g>
<!-- [root] aws_vpc_peering_connection.myapp -->
<g id="node7" class="node"><title>[root] aws_vpc_peering_connection.myapp</title>
<polygon fill="none" stroke="black" points="521.493,-180 298.507,-180 298.507,-144 521.493,-144 521.493,-180"/>
<text text-anchor="middle" x="410" y="-157.8" font-family="Times,serif" font-size="14.00">aws_vpc_peering_connection.myapp</text>
</g>
<!-- [root] aws_route.admin_to_myapp&#45;&gt;[root] aws_vpc_peering_connection.myapp -->
<g id="edge3" class="edge"><title>[root] aws_route.admin_to_myapp&#45;&gt;[root] aws_vpc_peering_connection.myapp</title>
<path fill="none" stroke="black" d="M382.146,-215.697C386.403,-207.644 391.556,-197.894 396.266,-188.982"/>
<polygon fill="black" stroke="black" points="399.38,-190.581 400.959,-180.104 393.192,-187.31 399.38,-190.581"/>
</g>
<!-- [root] aws_route.myapp_to_admin -->
<g id="node3" class="node"><title>[root] aws_route.myapp_to_admin</title>
<polygon fill="none" stroke="black" points="653.268,-252 478.732,-252 478.732,-216 653.268,-216 653.268,-252"/>
<text text-anchor="middle" x="566" y="-229.8" font-family="Times,serif" font-size="14.00">aws_route.myapp_to_admin</text>
</g>
<!-- [root] aws_route.myapp_to_admin&#45;&gt;[root] aws_vpc_peering_connection.myapp -->
<g id="edge4" class="edge"><title>[root] aws_route.myapp_to_admin&#45;&gt;[root] aws_vpc_peering_connection.myapp</title>
<path fill="none" stroke="black" d="M527.838,-215.876C506.607,-206.349 479.992,-194.407 457.431,-184.283"/>
<polygon fill="black" stroke="black" points="458.594,-180.969 448.038,-180.068 455.729,-187.356 458.594,-180.969"/>
</g>
<!-- [root] aws_vpc.myapp -->
<g id="node6" class="node"><title>[root] aws_vpc.myapp</title>
<polygon fill="none" stroke="black" points="284.944,-108 179.056,-108 179.056,-72 284.944,-72 284.944,-108"/>
<text text-anchor="middle" x="232" y="-85.8" font-family="Times,serif" font-size="14.00">aws_vpc.myapp</text>
</g>
<!-- [root] aws_security_group.admin&#45;&gt;[root] aws_vpc.myapp -->
<g id="edge5" class="edge"><title>[root] aws_security_group.admin&#45;&gt;[root] aws_vpc.myapp</title>
<path fill="none" stroke="black" d="M119.45,-143.876C139.638,-134.392 164.921,-122.513 186.408,-112.419"/>
<polygon fill="black" stroke="black" points="188.106,-115.488 195.669,-108.068 185.13,-109.153 188.106,-115.488"/>
</g>
<!-- [root] aws_subnet.fe&#45;&gt;[root] aws_vpc.myapp -->
<g id="edge6" class="edge"><title>[root] aws_subnet.fe&#45;&gt;[root] aws_vpc.myapp</title>
<path fill="none" stroke="black" d="M232,-143.697C232,-135.983 232,-126.712 232,-118.112"/>
<polygon fill="black" stroke="black" points="235.5,-118.104 232,-108.104 228.5,-118.104 235.5,-118.104"/>
</g>
<!-- [root] provider.aws -->
<g id="node8" class="node"><title>[root] provider.aws</title>
<polygon fill="none" stroke="black" points="232,-36 153.669,-18 232,-3.55271e-15 310.331,-18 232,-36"/>
<text text-anchor="middle" x="232" y="-13.8" font-family="Times,serif" font-size="14.00">provider.aws</text>
</g>
<!-- [root] aws_vpc.myapp&#45;&gt;[root] provider.aws -->
<g id="edge7" class="edge"><title>[root] aws_vpc.myapp&#45;&gt;[root] provider.aws</title>
<path fill="none" stroke="black" d="M232,-71.6966C232,-63.9827 232,-54.7125 232,-46.1124"/>
<polygon fill="black" stroke="black" points="235.5,-46.1043 232,-36.1043 228.5,-46.1044 235.5,-46.1043"/>
</g>
<!-- [root] aws_vpc_peering_connection.myapp&#45;&gt;[root] aws_vpc.myapp -->
<g id="edge8" class="edge"><title>[root] aws_vpc_peering_connection.myapp&#45;&gt;[root] aws_vpc.myapp</title>
<path fill="none" stroke="black" d="M366.456,-143.876C341.798,-134.179 310.777,-121.98 284.746,-111.743"/>
<polygon fill="black" stroke="black" points="285.989,-108.471 275.402,-108.068 283.428,-114.985 285.989,-108.471"/>
</g>
</g>
</svg>
